<svg xmlns="http://www.w3.org/2000/svg" xmlns:xlink="http://www.w3.org/1999/xlink" width="283.1" height="283.1" viewBox="0 0 283.1 283.1">
  <defs>
    <linearGradient id="linear-gradient" x1="0.5" x2="0.5" y2="1" gradientUnits="objectBoundingBox">
      <stop offset="0" stop-color="#4382eb"/>
      <stop offset="1" stop-color="#06bdfe"/>
    </linearGradient>
  </defs>
  <path id="话题icon" d="M208.478,51.2A125.818,125.818,0,0,1,334.3,177.022V302.845A31.456,31.456,0,0,1,302.845,334.3H177.022A125.818,125.818,0,0,1,51.2,208.478V177.022A125.818,125.818,0,0,1,177.022,51.2Zm40.106,58.9a14.9,14.9,0,0,0-18.244,10.538l-8.808,32.855a11.929,11.929,0,0,0-1.258-.063H192.805l6.716-25.078a14.9,14.9,0,0,0-28.782-7.707l-8.792,32.777-43.9.008a11.8,11.8,0,0,0,0,23.592h37.582l-10.538,39.319H118.043a11.8,11.8,0,0,0,0,23.592h20.721l-6.59,24.63a14.9,14.9,0,0,0,28.782,7.707l8.674-32.336h28.743l-6.59,24.638a14.9,14.9,0,0,0,28.782,7.707l8.658-32.344h38.234a11.8,11.8,0,0,0,0-23.592H235.545l23.576-88A14.9,14.9,0,0,0,248.584,110.1Zm-33.359,66.922-10.538,39.319H175.945l10.538-39.319Zm60.1-23.592a11.8,11.8,0,1,0,11.8,11.8A11.8,11.8,0,0,0,275.321,153.431Z" transform="translate(-51.2 -51.2)" fill="url(#linear-gradient)"/>
</svg>
